{"asset":{"version":"2.0","generator":"VECTARY"},"nodes":[{"translation":[0,-0.00009799999743700561,0.025],"scale":[0.002,0.001,0.002],"rotation":[-0.7071067811865475,0,0,0.7071067811865476],"name":"Merged Objects","mesh":0}],"materials":[{"pbrMetallicRoughness":{"baseColorFactor":[0.373615024646202,0.0055217448502396585,0.0055217448502396585,1],"metallicFactor":0.27,"roughnessFactor":0.2},"name":"Ballad","emissiveFactor":[0,0,0],"extensions":{},"alphaMode":"OPAQUE","doubleSided":false}],"meshes":[{"primitives":[{"mode":4,"attributes":{"POSITION":1,"NORMAL":2,"TEXCOORD_0":3},"material":0,"indices":0}]}],"accessors":[{"bufferView":0,"byteOffset":0,"componentType":5125,"count":85413,"type":"SCALAR"},{"bufferView":1,"byteOffset":0,"componentType":5126,"count":56856,"max":[125.13445281982422,25,94.16912078857422],"min":[-125.13445281982422,-25,0],"type":"VEC3"},{"bufferView":2,"byteOffset":0,"componentType":5126,"count":56856,"type":"VEC3"},{"bufferView":3,"byteOffset":0,"componentType":5126,"count":56856,"type":"VEC2"}],"bufferViews":[{"buffer":0,"byteOffset":0,"byteLength":341652,"target":34963},{"buffer":0,"byteOffset":341652,"byteLength":682272,"target":34962},{"buffer":0,"byteOffset":1023924,"byteLength":682272,"target":34962},{"buffer":0,"byteOffset":1706196,"byteLength":454848,"target":34962}],"scene":0,"scenes":[{"nodes":[0],"name":"Project Name"}],"extensionsUsed":["KHR_texture_transform"],"buffers":[{"byteLength":2161044,"uri":"ProjectName.bin"}]}